<svg width="586" height="586" viewBox="0 0 586 586" fill="none" xmlns="http://www.w3.org/2000/svg">
<rect width="586" height="586" fill="black"/>
<g filter="url(#filter0_dddd_38_44)">
<path fill-rule="evenodd" clip-rule="evenodd" d="M239.869 113.404C249.064 74.6238 271.523 40.1855 300.518 24C304.461 29.0305 308.33 34.5263 310.901 48.221C313.515 41.6574 315.782 36.976 322.483 33.024C329.677 34.9613 326.66 71.1165 327.258 100.894C368.921 106.91 380.248 147.036 407.829 170.474C423.751 184.005 448.56 193.797 472.458 197.03C493.535 199.881 513.117 198.603 527.828 203.057C532.998 218.017 530.932 236.913 519.899 254.843C519.975 254.956 519.818 260.358 519.01 260.847C487.704 285.362 488.264 280.094 452.659 289.787C441.064 292.944 390.603 296.776 378.936 300.015C382.484 328.438 379.854 357.726 372.094 387.731C370.198 389.615 368.395 392.052 365.525 388.155L362.95 368.339C353.308 397.024 340.453 425.14 328.97 453.498C324.444 456.477 321.036 457.148 320.165 452.596C315.936 465.054 309.701 477.298 302.761 489.467C286.992 510.626 265.939 530.113 245.187 549.694C239.107 553.116 238.396 556.564 218.985 559.921C215.199 562.652 213.474 561.583 213.626 557.054C219.239 546.496 219.553 537.722 220.46 527.44C216.603 537.581 209.738 543.241 203.976 549.798C200.338 551.203 195.532 555.557 193.467 552.994C191.228 546.916 195.575 545.768 196.434 542.211C201.552 533.417 203.246 524.209 205.439 516.726C208.361 506.748 209.596 499.405 207.815 496.08C196.438 507.816 185.022 519.527 170.711 529.334C166.266 531.897 164.392 531.585 161.358 530.866C159.905 526.52 161.292 521.479 163.645 518.538C170.759 506.652 171.754 500.473 176.297 489.278C179.92 480.348 181.085 467.466 180.455 456.069C170.797 479.069 160.365 485.981 147.676 483.323C150.717 471.953 156.679 460.573 158.71 447.687C159.862 440.382 159.048 434.52 157.465 423.113C145.88 441.324 139.949 472.699 118.052 466.904C115.975 465.501 114.715 464.076 116.773 462.557C127.116 453.824 128.279 439.948 129.638 426.241C130.603 416.496 128.223 407.924 124.508 401.161C120.123 406.285 104.847 437.784 101.511 426.688C103.857 407.651 107.441 388.614 106.75 369.578L90.567 392.381C86.1992 395.691 85.4674 391.264 85.9437 388.741C86.7728 368.884 94.5869 352.671 98.5965 335.704C86.4648 342.436 79.5176 353.388 61.9108 355.552C58.0168 355.943 51.7925 352.498 55.7878 347.265C65.5789 329.297 79.1502 315.336 91.9093 300.515L83.6107 305.963C81.6464 306.069 77.4534 307.126 80.153 300.107L128.849 254.941L102.379 265.658C96.7877 265.915 97.8929 262.478 99.6722 259.749L153.416 214.968L138.34 218.485C135.246 219.215 131.174 214.923 135.797 211.522C155.135 198.756 175.149 185.359 187.771 168.267L180.852 168.346C178.508 167.065 177.916 165.123 179.559 162.34C202.489 154.771 220.158 132.665 239.869 113.404Z" fill="black" stroke="black" stroke-width="0.999999"/>
</g>
<defs>
<filter id="filter0_dddd_38_44" x="38" y="7.35498" width="509.024" height="570.554" filterUnits="userSpaceOnUse" color-interpolation-filters="sRGB">
<feFlood flood-opacity="0" result="BackgroundImageFix"/>
<feColorMatrix in="SourceAlpha" type="matrix" values="0 0 0 0 0 0 0 0 0 0 0 0 0 0 0 0 0 0 127 0" result="hardAlpha"/>
<feOffset/>
<feGaussianBlur stdDeviation="8"/>
<feColorMatrix type="matrix" values="0 0 0 0 0.388235 0 0 0 0 0.258824 0 0 0 0 0.584314 0 0 0 1 0"/>
<feBlend mode="normal" in2="BackgroundImageFix" result="effect1_dropShadow_38_44"/>
<feColorMatrix in="SourceAlpha" type="matrix" values="0 0 0 0 0 0 0 0 0 0 0 0 0 0 0 0 0 0 127 0" result="hardAlpha"/>
<feOffset/>
<feGaussianBlur stdDeviation="8"/>
<feColorMatrix type="matrix" values="0 0 0 0 0.388235 0 0 0 0 0.258824 0 0 0 0 0.584314 0 0 0 1 0"/>
<feBlend mode="normal" in2="effect1_dropShadow_38_44" result="effect2_dropShadow_38_44"/>
<feColorMatrix in="SourceAlpha" type="matrix" values="0 0 0 0 0 0 0 0 0 0 0 0 0 0 0 0 0 0 127 0" result="hardAlpha"/>
<feOffset/>
<feGaussianBlur stdDeviation="8"/>
<feColorMatrix type="matrix" values="0 0 0 0 0.388235 0 0 0 0 0.258824 0 0 0 0 0.584314 0 0 0 1 0"/>
<feBlend mode="normal" in2="effect2_dropShadow_38_44" result="effect3_dropShadow_38_44"/>
<feColorMatrix in="SourceAlpha" type="matrix" values="0 0 0 0 0 0 0 0 0 0 0 0 0 0 0 0 0 0 127 0" result="hardAlpha"/>
<feOffset/>
<feGaussianBlur stdDeviation="8"/>
<feColorMatrix type="matrix" values="0 0 0 0 0.388235 0 0 0 0 0.258824 0 0 0 0 0.584314 0 0 0 1 0"/>
<feBlend mode="normal" in2="effect3_dropShadow_38_44" result="effect4_dropShadow_38_44"/>
<feBlend mode="normal" in="SourceGraphic" in2="effect4_dropShadow_38_44" result="shape"/>
</filter>
</defs>
</svg>
