<svg width="128" height="128" viewBox="10 6 44 44" fill="none" xmlns="http://www.w3.org/2000/svg" role="img" aria-labelledby="t d">
  <title id="t">Mise en production</title><desc id="d">Fusée semi-illustrée avec flamme néon</desc>
  <defs>
    <linearGradient id="vg-violet" x1="0" y1="0" x2="1" y2="1"><stop offset="0%" stop-color="#7C5CFF"></stop><stop offset="100%" stop-color="#BBA7FF"></stop></linearGradient>
    <linearGradient id="vg-violet-dark" x1="0" y1="0" x2="1" y2="1"><stop offset="0%" stop-color="#5A45D6"></stop><stop offset="100%" stop-color="#8E73FF"></stop></linearGradient>
    <linearGradient id="vg-flame" x1="0" y1="0" x2="0" y2="1"><stop offset="0%" stop-color="#A7FF4A"></stop><stop offset="60%" stop-color="#5BFF73"></stop><stop offset="100%" stop-color="#7C5CFF"></stop></linearGradient>
    <filter id="glow-violet" x="-50%" y="-50%" width="200%" height="200%"><feDropShadow dx="0" dy="0" stdDeviation="2.6" flood-color="#9E8BFF" flood-opacity="0.75"></feDropShadow></filter>
    <filter id="glow-flame" x="-50%" y="-50%" width="200%" height="200%"><feDropShadow dx="0" dy="0" stdDeviation="3.0" flood-color="#93FF58" flood-opacity="0.9"></feDropShadow></filter>
  </defs>

  <!-- Fusée -->
  <g filter="url(#glow-violet)">
    <path d="M33 12c6 7 6 18 0 25-6-7-6-18 0-25z" fill="url(#vg-violet)"></path>
    <rect x="28" y="22" width="10" height="12" rx="2" fill="url(#vg-violet-dark)"></rect>
    <circle cx="33" cy="22" r="3.8" fill="#DAD3FF" opacity="0.9"></circle>
    <!-- Ailettes -->
    <path d="M28 30c-4 1-7 4-8 8 4-1 8-3 10-6v-2z" fill="url(#vg-violet-dark)"></path>
    <path d="M38 30c4 1 7 4 8 8-4-1-8-3-10-6v-2z" fill="url(#vg-violet-dark)"></path>
  </g>

  <!-- Flamme -->
  <g filter="url(#glow-flame)">
    <path d="M33 36c0 0 3 4 0 8-3-4 0-8 0-8z" fill="url(#vg-flame)"></path>
    <path d="M33 42c0 0 2 3 0 5-2-2 0-5 0-5z" fill="url(#vg-flame)" opacity="0.9"></path>
  </g>
</svg>
