<svg width="128" height="128" viewBox="0 0 64 64" fill="none" xmlns="http://www.w3.org/2000/svg" role="img" aria-labelledby="title desc">
  <title id="title">Premier échange (30 min)</title>
  <desc id="desc">Deux bulles de discussion violet néon avec une petite horloge verte indiquant un rendez-vous de 30 minutes.</desc>

  <defs>
    <!-- Dégradés marque (ajuste les couleurs si besoin) -->
    <linearGradient id="vg-violet" x1="0" y1="0" x2="1" y2="1">
      <stop offset="0%" stop-color="#7C5CFF"></stop>
      <stop offset="100%" stop-color="#BBA7FF"></stop>
    </linearGradient>
    <linearGradient id="vg-violet-dark" x1="0" y1="0" x2="1" y2="1">
      <stop offset="0%" stop-color="#5A45D6"></stop>
      <stop offset="100%" stop-color="#8E73FF"></stop>
    </linearGradient>
    <linearGradient id="vg-green" x1="0" y1="0" x2="1" y2="1">
      <stop offset="0%" stop-color="#A7FF4A"></stop>
      <stop offset="100%" stop-color="#5BFF73"></stop>
    </linearGradient>

    <!-- Lueur douce (néon) -->
    <filter id="glow-violet" x="-50%" y="-50%" width="200%" height="200%">
      <feDropShadow dx="0" dy="0" stdDeviation="2.5" flood-color="#9E8BFF" flood-opacity="0.7"></feDropShadow>
    </filter>
    <filter id="glow-green" x="-50%" y="-50%" width="200%" height="200%">
      <feDropShadow dx="0" dy="0" stdDeviation="2.2" flood-color="#93FF58" flood-opacity="0.85"></feDropShadow>
    </filter>

    <!-- Lignes “texte” dans les bulles -->
    <linearGradient id="line-shine" x1="0" y1="0" x2="1" y2="0">
      <stop offset="0%" stop-color="#FFFFFF" stop-opacity="0.55"></stop>
      <stop offset="100%" stop-color="#E7E1FF" stop-opacity="0.15"></stop>
    </linearGradient>
  </defs>

  <!-- Bulle arrière (à gauche) -->
  <g filter="url(#glow-violet)">
    <path d="M10 13c0-3.3 2.7-6 6-6h22c3.3 0 6 2.7 6 6v11c0 3.3-2.7 6-6 6H24.5l-6.6 4.9c-0.9 0.6-2 .0-2-1.1V30H16c-3.3 0-6-2.7-6-6V13z" fill="url(#vg-violet)"></path>
    <!-- Lignes de contenu -->
    <rect x="16" y="14.5" width="22" height="2.4" rx="1.2" fill="url(#line-shine)"></rect>
    <rect x="16" y="18.5" width="19" height="2.4" rx="1.2" fill="url(#line-shine)" opacity="0.85"></rect>
    <rect x="16" y="22.5" width="14" height="2.4" rx="1.2" fill="url(#line-shine)" opacity="0.7"></rect>
  </g>

  <!-- Bulle avant (à droite) -->
  <g filter="url(#glow-violet)">
    <path d="M18 29c0-3.3 2.7-6 6-6h24c3.3 0 6 2.7 6 6v12c0 3.3-2.7 6-6 6H34.2l-6.7 5c-0.9 0.6-2 .0-2-1.1V47H24c-3.3 0-6-2.7-6-6V29z" fill="url(#vg-violet-dark)"></path>
    <!-- Lignes de contenu -->
    <rect x="24" y="30.5" width="23" height="2.6" rx="1.3" fill="url(#line-shine)"></rect>
    <rect x="24" y="34.8" width="19" height="2.6" rx="1.3" fill="url(#line-shine)" opacity="0.85"></rect>
    <rect x="24" y="39.1" width="12" height="2.6" rx="1.3" fill="url(#line-shine)" opacity="0.7"></rect>
  </g>

  <!-- Horloge (rendez-vous 30 min) -->
  <g filter="url(#glow-green)">
    <circle cx="51.5" cy="15.5" r="7.8" fill="url(#vg-green)"></circle>
    <!-- repères -->
    <circle cx="51.5" cy="15.5" r="7.8" fill="none" stroke="rgba(0,0,0,0.25)" stroke-width="0.6"></circle>
    <!-- aiguilles -->
    <line x1="51.5" y1="15.5" x2="51.5" y2="11.6" stroke="#0B1A0E" stroke-linecap="round" stroke-width="1.6"></line>
    <line x1="51.5" y1="15.5" x2="55.0" y2="17.3" stroke="#0B1A0E" stroke-linecap="round" stroke-width="1.6"></line>
    <!-- centre -->
    <circle cx="51.5" cy="15.5" r="1.1" fill="#0B1A0E" opacity="0.95"></circle>
  </g>
</svg>
