<svg width="128" height="128" viewBox="0 0 64 64" fill="none" xmlns="http://www.w3.org/2000/svg" role="img" aria-labelledby="t d">
  <title id="t">Définition du périmètre</title><desc id="d">Bloc-notes violet avec cases cochées vertes</desc>
  <defs>
    <linearGradient id="vg-violet" x1="0" y1="0" x2="1" y2="1"><stop offset="0%" stop-color="#7C5CFF"></stop><stop offset="100%" stop-color="#BBA7FF"></stop></linearGradient>
    <linearGradient id="vg-violet-dark" x1="0" y1="0" x2="1" y2="1"><stop offset="0%" stop-color="#5A45D6"></stop><stop offset="100%" stop-color="#8E73FF"></stop></linearGradient>
    <linearGradient id="vg-green" x1="0" y1="0" x2="1" y2="1"><stop offset="0%" stop-color="#A7FF4A"></stop><stop offset="100%" stop-color="#5BFF73"></stop></linearGradient>
    <filter id="glow-violet" x="-50%" y="-50%" width="200%" height="200%"><feDropShadow dx="0" dy="0" stdDeviation="2.3" flood-color="#9E8BFF" flood-opacity="0.7"></feDropShadow></filter>
    <filter id="glow-green" x="-50%" y="-50%" width="200%" height="200%"><feDropShadow dx="0" dy="0" stdDeviation="2.0" flood-color="#93FF58" flood-opacity="0.8"></feDropShadow></filter>
  </defs>

  <!-- Dos du bloc-notes -->
  <rect x="10" y="9" width="38" height="48" rx="4.5" fill="url(#vg-violet)" filter="url(#glow-violet)"></rect>
  <!-- Feuille -->
  <rect x="14" y="13" width="36" height="46" rx="4" fill="url(#vg-violet-dark)"></rect>
  <!-- Anneaux -->
  <rect x="18" y="10" width="4" height="6" rx="2" fill="#BBA7FF" opacity="0.9"></rect>
  <rect x="26" y="10" width="4" height="6" rx="2" fill="#BBA7FF" opacity="0.9"></rect>
  <rect x="34" y="10" width="4" height="6" rx="2" fill="#BBA7FF" opacity="0.9"></rect>
  <rect x="42" y="10" width="4" height="6" rx="2" fill="#BBA7FF" opacity="0.9"></rect>

  <!-- Lignes -->
  <rect x="20" y="20" width="22" height="2.4" rx="1.2" fill="white" opacity="0.55"></rect>
  <rect x="20" y="26" width="18" height="2.4" rx="1.2" fill="white" opacity="0.55"></rect>
  <rect x="20" y="32" width="22" height="2.4" rx="1.2" fill="white" opacity="0.55"></rect>
  <rect x="20" y="38" width="16" height="2.4" rx="1.2" fill="white" opacity="0.55"></rect>

  <!-- Cases + coches -->
  <g filter="url(#glow-green)">
    <rect x="16" y="19.6" width="2.8" height="2.8" rx="0.6" fill="white" opacity="0.15"></rect>
    <path d="M16.4 21.0l0.9 0.9 1.9-1.9" stroke="url(#vg-green)" stroke-width="1.6" stroke-linecap="round" stroke-linejoin="round"></path>
    <rect x="16" y="31.6" width="2.8" height="2.8" rx="0.6" fill="white" opacity="0.15"></rect>
    <path d="M16.4 33.0l0.9 0.9 1.9-1.9" stroke="url(#vg-green)" stroke-width="1.6" stroke-linecap="round" stroke-linejoin="round"></path>
    <rect x="16" y="37.6" width="2.8" height="2.8" rx="0.6" fill="white" opacity="0.15"></rect>
    <path d="M16.4 39.0l0.9 0.9 1.9-1.9" stroke="url(#vg-green)" stroke-width="1.6" stroke-linecap="round" stroke-linejoin="round"></path>
  </g>
</svg>
